<?xml version="1.0" encoding="utf-8"?>
<!-- Generated by IcoMoon.io -->
<!DOCTYPE svg PUBLIC "-//W3C//DTD SVG 1.1//EN" "http://www.w3.org/Graphics/SVG/1.1/DTD/svg11.dtd">
<svg version="1.1" xmlns="http://www.w3.org/2000/svg" xmlns:xlink="http://www.w3.org/1999/xlink" width="48" height="48" viewBox="0 0 48 48">
<path d="M44.995 6c0.002 0.002 0.004 0.004 0.005 0.005v35.989c-0.002 0.002-0.004 0.004-0.005 0.005h-41.989c-0.002-0.002-0.004-0.004-0.005-0.005v-35.989c0.002-0.002 0.004-0.004 0.005-0.005h41.989zM45 3h-42c-1.65 0-3 1.35-3 3v36c0 1.65 1.35 3 3 3h42c1.65 0 3-1.35 3-3v-36c0-1.65-1.35-3-3-3v0z" fill="#444444"></path>
<path d="M39 13.5c0 2.485-2.015 4.5-4.5 4.5s-4.5-2.015-4.5-4.5 2.015-4.5 4.5-4.5 4.5 2.015 4.5 4.5z" fill="#444444"></path>
<path d="M42 39h-36v-6l10.5-18 12 15h3l10.5-9z" fill="#444444"></path>
</svg>
